<?xml version="1.0" encoding="utf-8"?><svg viewBox="0 0 22 22" xmlns="http://www.w3.org/2000/svg" xmlns:xlink="http://www.w3.org/1999/xlink"><style>:root>svg{display:none}:root>svg:target{display:block}</style><svg viewBox="0 0 14 13" id="arrow" xmlns="http://www.w3.org/2000/svg"><path d="M8.121.293a1 1 0 000 1.414L11.413 5 1 5.007a1 1 0 000 2L11.414 7l-3.293 3.293a1 1 0 101.414 1.414l3.586-3.585a3 3 0 000-4.243L9.535.293a1 1 0 00-1.414 0z"/></svg><svg viewBox="0 0 11 19" id="arrow-left" xmlns="http://www.w3.org/2000/svg"><path d="M8.197 18.05L.45 10.302a1.548 1.548 0 010-2.184L8.197.373a1.548 1.548 0 012.184 2.184L3.735 9.203l6.646 6.662c.601.604.601 1.58 0 2.184a1.548 1.548 0 01-2.184 0z"/></svg><svg viewBox="0 0 11 19" id="arrow-right" xmlns="http://www.w3.org/2000/svg"><path d="M2.635.45l7.746 7.747c.601.604.601 1.58 0 2.184l-7.746 7.746a1.548 1.548 0 01-2.184-2.184l6.646-6.646L.45 2.635a1.548 1.548 0 010-2.184 1.548 1.548 0 012.184 0z"/></svg><svg viewBox="0 0 17 16" id="subscribe" xmlns="http://www.w3.org/2000/svg"><path d="M10.318 14.3a.694.694 0 01-.616-.36l-2.041-3.858a.622.622 0 01.05-.66L11.005 5.2 6.538 8.314a.725.725 0 01-.7.046L1.757 6.432a.646.646 0 01-.379-.618.653.653 0 01.449-.574L14.895.69a.719.719 0 01.724.15c.19.18.252.447.16.685l-4.816 12.35a.684.684 0 01-.607.424l-.038.001z"/></svg><svg viewBox="0 0 22 22" id="timer" xmlns="http://www.w3.org/2000/svg"><g opacity=".9"><path d="M11.575 2.54v-.959a.611.611 0 00-1.222 0v.965c-4.803.333-8.609 4.344-8.609 9.23 0 5.102 4.153 9.254 9.256 9.254 5.103 0 9.256-4.152 9.256-9.255 0-4.91-3.845-8.937-8.681-9.235zM11 19.808c-4.43 0-8.033-3.604-8.033-8.033 0-4.43 3.603-8.033 8.033-8.033s8.033 3.604 8.033 8.033c0 4.429-3.603 8.033-8.033 8.033z"/><path d="M7.863 17.322a6.39 6.39 0 01-3.234-5.547.305.305 0 10-.611 0 7.004 7.004 0 003.544 6.079.306.306 0 00.301-.532zM9.53 18.16a6.839 6.839 0 01-.353-.102.305.305 0 00-.186.582c.127.04.255.078.385.11a.305.305 0 00.153-.59zM18.885 5.728a.611.611 0 00.863-.865L18.162 3.28a.61.61 0 10-.863.865l1.586 1.583zM11.575 11.661V6.776a.611.611 0 00-1.223 0v5.15c0 .168.088.328.21.443l1.789 1.672a.61.61 0 00.657.117.61.61 0 00.163-1.006l-1.596-1.49z"/></g></svg></svg>